<?xml version="1.0" encoding="utf-8"?>
<!-- Generator: Adobe Illustrator 24.1.2, SVG Export Plug-In . SVG Version: 6.00 Build 0)  -->
<svg version="1.1" id="Camada_1" xmlns="http://www.w3.org/2000/svg" xmlns:xlink="http://www.w3.org/1999/xlink" x="0px" y="0px"
	 viewBox="0 0 512 512" style="enable-background:new 0 0 512 512;" xml:space="preserve">
<style type="text/css">
	.st0{fill:#FF4B4B;}
</style>
<g>
	<path class="st0" d="M-17.2,480.9L-36,391.2c0-0.2-0.1-0.4-0.1-0.6c-8.9-31.4-34.5-55.3-66.5-61.9L-201,308v-12.3
		c24.7-14.3,40-40.7,40-69.2v-24h4c15.5,0,28-12.5,28-28v-24c0-15.5-12.5-28-28-28h-4v-25c0-0.1,0-0.2,0-0.3
		C-161.8,39.7-208.9-6.2-266.3-5.5c-56.4,0.7-102,46.3-102.7,102.7c0,0.1,0,0.2,0,0.3v25h-4c-15.5,0-28,12.5-28,28v24
		c0,15.5,12.5,28,28,28h4v24c0,28.6,15.3,55,40,69.2V308l-98.5,20.7c-31.9,6.7-57.6,30.5-66.5,61.9c-0.1,0.2-0.1,0.4-0.1,0.6
		l-18.8,89.6c-0.9,4.3,1.9,8.6,6.2,9.5c0.5,0.1,1.1,0.2,1.6,0.2h480c4.4,0,8-3.6,8-8C-17,482-17.1,481.4-17.2,480.9z M-161,138.5h4
		c6.6,0,12,5.4,12,12v24c0,6.6-5.4,12-12,12h-4V138.5z M-369,186.5h-4c-6.6,0-12-5.4-12-12v-24c0-6.6,5.4-12,12-12h4V186.5z
		 M-353,98.5c0-48.6,39.4-88,88-88s88,39.4,88,88v40h-8v-8c0-4.4-3.6-8-8-8h-56c-4.4,0-8,3.6-8,8v24h-16v-24c0-4.4-3.6-8-8-8h-56
		c-4.4,0-8,3.6-8,8v8h-8V98.5z M-201,138.5v34.8c-16,6.7-28.9,6.9-40,0.8v-35.6H-201z M-289,138.5v34.8c-16,6.7-28.9,6.9-40,0.8
		v-35.6H-289z M-353,226.5v-72h8v24c0,2.6,1.3,5.1,3.4,6.6c8.7,6.2,19.1,9.6,29.8,9.5c10.5,0,21.8-2.9,34.2-8.9
		c2.8-1.3,4.6-4.1,4.6-7.2v-8h16v8c0,2.6,1.3,5.1,3.4,6.6c8.7,6.2,19.1,9.6,29.8,9.5c10.5,0,21.8-2.9,34.2-8.9
		c2.8-1.3,4.6-4.1,4.6-7.2v-24h8v72c0,35.3-28.7,64-64,64h-48C-324.4,290.5-353,261.8-353,226.5z M-217,302.8v11.7
		c0,20-30.9,53.2-48,69.2c-5.2-4.9-13.6-13.2-22-22.8c-16.8-19.4-26-35.8-26-46.4v-11.7c7.8,2.4,15.9,3.7,24,3.7h48
		C-232.9,306.5-224.8,305.3-217,302.8z M-105,474.5v-48c0-4.4-3.6-8-8-8s-8,3.6-8,8v48h-288v-48c0-4.4-3.6-8-8-8c-4.4,0-8,3.6-8,8
		v48h-70.1l16.7-79.7c7.4-25.6,28.3-45,54.3-50.4l96.4-20.3c8.1,32.3,52,71.6,57.5,76.4c3,2.6,7.5,2.6,10.5,0
		c5.5-4.8,49.4-44.1,57.5-76.4l96.4,20.3c26,5.4,46.9,24.8,54.3,50.4l16.7,79.7H-105z"/>
	<path class="st0" d="M-241,242.5c4.4,0,8-3.6,8-8s-3.6-8-8-8h-48c-4.4,0-8,3.6-8,8s3.6,8,8,8H-241z"/>
	<path class="st0" d="M-297,154.5c0-4.4-3.6-8-8-8h-8c-4.4,0-8,3.6-8,8s3.6,8,8,8h8C-300.6,162.5-297,158.9-297,154.5z"/>
	<path class="st0" d="M-225,162.5h8c4.4,0,8-3.6,8-8s-3.6-8-8-8h-8c-4.4,0-8,3.6-8,8S-229.5,162.5-225,162.5z"/>
	<path class="st0" d="M-257,250.5h-16c-4.4,0-8,3.6-8,8c0,4.4,3.6,8,8,8h16c4.4,0,8-3.6,8-8C-249,254.1-252.6,250.5-257,250.5z"/>
</g>
<g>
	<path class="st0" d="M475.6,404.5C475.6,404.4,475.6,404.4,475.6,404.5l-2.1-0.1c-35.7,0-68.8-13.6-93.9-36.3
		c-19.5-17.7-34-41.1-41-68L271,39.5c-0.2-0.3-0.4-0.6-0.5-0.9l-4.5-9.9c-1.4-3.1-3.6-5.7-6.2-7.7c0,0,0,0-0.1-0.1
		c-0.2-0.1-0.4-0.3-0.5-0.4c-0.2-0.1-0.3-0.2-0.5-0.3c-0.1-0.1-0.2-0.1-0.3-0.2c-0.8-0.5-1.6-1-2.5-1.4v0
		c-6.7-3.3-15.3-3.6-22.5,0.2L133.3,71.1c-3,1.5-1.5,5.6,1.9,5.3l87.5-8.8c2.5-0.3,4.4,2,3.5,4.1l-54.3,225.9
		c-3.3,13.6-8.4,26.2-15.2,37.8c2.6,1.3,5.1,2.6,7.7,3.8c58.5,27.5,121.1,33.7,177.8,21.9c-25.7,15.2-55.3,24.1-86.3,26.1v0.1
		c-34.3,2.2-70.4-4.2-104.6-20.2c-4.5-2.1-9-4.4-13.3-6.8c-25.7,27.4-62.1,44.1-101.7,44.1h0C36.3,455,134.7,496,256,496
		S475.7,455,475.6,404.5L475.6,404.5z"/>
	<path class="st0" d="M46.2,121.5l28.2-0.4c0.9,0,1.7,0.4,2.1,1.1l16.3,23c1.2,1.7,3.9,1.3,4.6-0.7l8.4-26.9
		c0.3-0.8,0.9-1.4,1.7-1.7l26.9-8.4c2-0.6,2.5-3.3,0.7-4.6l-23-16.3c-0.7-0.5-1.1-1.3-1.1-2.1l0.4-28.2c0-2.1-2.4-3.4-4.1-2.1
		L84.7,71.1c-0.7,0.5-1.6,0.6-2.4,0.4l-26.7-9.1c-2-0.7-4,1.2-3.3,3.3l9.1,26.7c0.3,0.8,0.1,1.7-0.4,2.4l-16.9,22.6
		C42.8,119.1,44.1,121.6,46.2,121.5z"/>
</g>
</svg>
