<?xml version="1.0" encoding="utf-8"?>
<!-- Generator: Adobe Illustrator 24.1.2, SVG Export Plug-In . SVG Version: 6.00 Build 0)  -->
<svg version="1.1" id="Camada_1" xmlns="http://www.w3.org/2000/svg" xmlns:xlink="http://www.w3.org/1999/xlink" x="0px" y="0px"
	 viewBox="0 0 512 512" style="enable-background:new 0 0 512 512;" xml:space="preserve">
<style type="text/css">
	.st0{fill:#FF4B4B;}
</style>
<g>
	<path class="st0" d="M-17.2,480.9L-36,391.2c0-0.2-0.1-0.4-0.1-0.6c-8.9-31.4-34.5-55.3-66.5-61.9L-201,308v-12.3
		c24.7-14.3,40-40.7,40-69.2v-24h4c15.5,0,28-12.5,28-28v-24c0-15.5-12.5-28-28-28h-4v-25c0-0.1,0-0.2,0-0.3
		C-161.8,39.7-208.9-6.2-266.3-5.5c-56.4,0.7-102,46.3-102.7,102.7c0,0.1,0,0.2,0,0.3v25h-4c-15.5,0-28,12.5-28,28v24
		c0,15.5,12.5,28,28,28h4v24c0,28.6,15.3,55,40,69.2V308l-98.5,20.7c-31.9,6.7-57.6,30.5-66.5,61.9c-0.1,0.2-0.1,0.4-0.1,0.6
		l-18.8,89.6c-0.9,4.3,1.9,8.6,6.2,9.5c0.5,0.1,1.1,0.2,1.6,0.2h480c4.4,0,8-3.6,8-8C-17,482-17.1,481.4-17.2,480.9z M-161,138.5h4
		c6.6,0,12,5.4,12,12v24c0,6.6-5.4,12-12,12h-4V138.5z M-369,186.5h-4c-6.6,0-12-5.4-12-12v-24c0-6.6,5.4-12,12-12h4V186.5z
		 M-353,98.5c0-48.6,39.4-88,88-88s88,39.4,88,88v40h-8v-8c0-4.4-3.6-8-8-8h-56c-4.4,0-8,3.6-8,8v24h-16v-24c0-4.4-3.6-8-8-8h-56
		c-4.4,0-8,3.6-8,8v8h-8V98.5z M-201,138.5v34.8c-16,6.7-28.9,6.9-40,0.8v-35.6H-201z M-289,138.5v34.8c-16,6.7-28.9,6.9-40,0.8
		v-35.6H-289z M-353,226.5v-72h8v24c0,2.6,1.3,5.1,3.4,6.6c8.7,6.2,19.1,9.6,29.8,9.5c10.5,0,21.8-2.9,34.2-8.9
		c2.8-1.3,4.6-4.1,4.6-7.2v-8h16v8c0,2.6,1.3,5.1,3.4,6.6c8.7,6.2,19.1,9.6,29.8,9.5c10.5,0,21.8-2.9,34.2-8.9
		c2.8-1.3,4.6-4.1,4.6-7.2v-24h8v72c0,35.3-28.7,64-64,64h-48C-324.4,290.5-353,261.8-353,226.5z M-217,302.8v11.7
		c0,20-30.9,53.2-48,69.2c-5.2-4.9-13.6-13.2-22-22.8c-16.8-19.4-26-35.8-26-46.4v-11.7c7.8,2.4,15.9,3.7,24,3.7h48
		C-232.9,306.5-224.8,305.3-217,302.8z M-105,474.5v-48c0-4.4-3.6-8-8-8s-8,3.6-8,8v48h-288v-48c0-4.4-3.6-8-8-8c-4.4,0-8,3.6-8,8
		v48h-70.1l16.7-79.7c7.4-25.6,28.3-45,54.3-50.4l96.4-20.3c8.1,32.3,52,71.6,57.5,76.4c3,2.6,7.5,2.6,10.5,0
		c5.5-4.8,49.4-44.1,57.5-76.4l96.4,20.3c26,5.4,46.9,24.8,54.3,50.4l16.7,79.7H-105z"/>
	<path class="st0" d="M-241,242.5c4.4,0,8-3.6,8-8s-3.6-8-8-8h-48c-4.4,0-8,3.6-8,8s3.6,8,8,8H-241z"/>
	<path class="st0" d="M-297,154.5c0-4.4-3.6-8-8-8h-8c-4.4,0-8,3.6-8,8s3.6,8,8,8h8C-300.6,162.5-297,158.9-297,154.5z"/>
	<path class="st0" d="M-225,162.5h8c4.4,0,8-3.6,8-8s-3.6-8-8-8h-8c-4.4,0-8,3.6-8,8S-229.5,162.5-225,162.5z"/>
	<path class="st0" d="M-257,250.5h-16c-4.4,0-8,3.6-8,8c0,4.4,3.6,8,8,8h16c4.4,0,8-3.6,8-8C-249,254.1-252.6,250.5-257,250.5z"/>
</g>
<g>
	<path class="st0" d="M29.8,382.4l-9.4,9.4c-5.9,5.9-5.9,15.5,0,21.4l78.4,78.4c5.9,5.9,15.5,5.9,21.4,0l9.4-9.4
		c5.9-5.9,5.9-15.5,0-21.4l-78.4-78.4C45.3,376.5,35.7,376.5,29.8,382.4z"/>
	<path class="st0" d="M274.2,95.5c-4.3-0.8-8.9,0.2-12.4,3.1c-0.7,0.5-1.3,1.2-1.8,1.8l-204.5,247c-0.2,0.3-0.5,0.5-0.7,0.8
		c-5.5,5.9-5.4,15.2,0.4,21l87.5,87.5c5.8,5.8,15.1,5.9,21,0.4c0.3-0.2,0.5-0.5,0.8-0.7l35.6-29.5c30.2,27,76.5,28.6,108.6,1.9
		c32-26.6,39-72.1,18.1-106.7l84.7-70.1c0.7-0.5,1.3-1.1,1.8-1.8c2.9-3.6,4-8.1,3.1-12.4c-12.7-8.6-42-35-74.6-67.6
		C309.2,137.5,282.8,108.2,274.2,95.5z M294.1,411.4c-22.4,18.7-54.3,18.3-76.3,0.9l91.2-75.5C322,361.6,316.5,392.8,294.1,411.4z"
		/>
	<path class="st0" d="M406.7,87.2l-54.1,54.1c-5,5-5,13.1,0,18c5,5,13.1,5,18,0l54.1-54.1c5-5,5-13.1,0-18
		C419.8,82.3,411.7,82.3,406.7,87.2z"/>
	<path class="st0" d="M329.3,105.3V28.8c0-7-5.7-12.8-12.8-12.8l0,0c-7,0-12.8,5.7-12.8,12.8v76.6c0,7,5.7,12.8,12.8,12.8
		C323.5,118.1,329.3,112.4,329.3,105.3z"/>
	<path class="st0" d="M406.7,182.7c-7,0-12.8,5.7-12.8,12.8c0,7,5.7,12.8,12.8,12.8h76.6c7,0,12.8-5.7,12.8-12.8
		c0-7-5.7-12.8-12.8-12.8H406.7z"/>
</g>
</svg>
