<?xml version="1.0" encoding="utf-8"?>
<!-- Generator: Adobe Illustrator 24.1.2, SVG Export Plug-In . SVG Version: 6.00 Build 0)  -->
<svg version="1.1" id="Camada_1" xmlns="http://www.w3.org/2000/svg" xmlns:xlink="http://www.w3.org/1999/xlink" x="0px" y="0px"
	 viewBox="0 0 512 512" style="enable-background:new 0 0 512 512;" xml:space="preserve">
<style type="text/css">
	.st0{fill:#FF4B4B;}
</style>
<path class="st0" d="M238.3,33.7l-215,215c-4.7,4.7-7.3,11-7.3,17.7V471c0,13.8,11.2,25,25,25h430c13.8,0,25-11.2,25-25V266.4
	c0-6.6-2.6-13-7.3-17.7l-215-215C263.9,23.9,248.1,23.9,238.3,33.7z M219.2,451H206c-13.8,0-25-11.2-25-25v-13.2
	c0-13.8,11.2-25,25-25h13.2c13.8,0,25,11.2,25,25V426C244.2,439.8,233,451,219.2,451z M219.2,364.2H206c-13.8,0-25-11.2-25-25V326
	c0-13.8,11.2-25,25-25h13.2c13.8,0,25,11.2,25,25v13.2C244.2,353,233,364.2,219.2,364.2z M306,451h-13.2c-13.8,0-25-11.2-25-25
	v-13.2c0-13.8,11.2-25,25-25H306c13.8,0,25,11.2,25,25V426C331,439.8,319.8,451,306,451z M306,364.2h-13.2c-13.8,0-25-11.2-25-25
	V326c0-13.8,11.2-25,25-25H306c13.8,0,25,11.2,25,25v13.2C331,353,319.8,364.2,306,364.2z"/>
</svg>
