<?xml version="1.0" encoding="utf-8"?>
<!-- Generator: Adobe Illustrator 24.1.2, SVG Export Plug-In . SVG Version: 6.00 Build 0)  -->
<svg version="1.1" id="Camada_1" xmlns="http://www.w3.org/2000/svg" xmlns:xlink="http://www.w3.org/1999/xlink" x="0px" y="0px"
	 viewBox="0 0 100 100" style="enable-background:new 0 0 100 100;" xml:space="preserve">
<style type="text/css">
	.st0{clip-path:url(#SVGID_2_);}
	.st1{fill:none;stroke:#FFFFFF;stroke-width:2;stroke-linecap:round;stroke-linejoin:round;stroke-miterlimit:10;}
</style>
<g>
	<g>
		<g>
			<defs>
				<circle id="SVGID_1_" cx="50" cy="50" r="48.9"/>
			</defs>
			<clipPath id="SVGID_2_">
				<use xlink:href="#SVGID_1_"  style="overflow:visible;"/>
			</clipPath>
			<g class="st0">
				<line class="st1" x1="-120.4" y1="118.3" x2="16.1" y2="-18.2"/>
				<line class="st1" x1="-111.5" y1="118.3" x2="25" y2="-18.2"/>
				<line class="st1" x1="-102.6" y1="118.3" x2="33.9" y2="-18.2"/>
				<line class="st1" x1="-93.7" y1="118.3" x2="42.8" y2="-18.2"/>
				<line class="st1" x1="-84.8" y1="118.3" x2="51.7" y2="-18.2"/>
				<line class="st1" x1="-76" y1="118.3" x2="60.5" y2="-18.2"/>
				<line class="st1" x1="-67.1" y1="118.3" x2="69.4" y2="-18.2"/>
				<line class="st1" x1="-58.2" y1="118.3" x2="78.3" y2="-18.2"/>
				<line class="st1" x1="-49.3" y1="118.3" x2="87.2" y2="-18.2"/>
				<line class="st1" x1="-40.4" y1="118.3" x2="96.1" y2="-18.2"/>
				<line class="st1" x1="-31.6" y1="118.3" x2="104.9" y2="-18.2"/>
				<line class="st1" x1="-22.7" y1="118.3" x2="113.8" y2="-18.2"/>
				<line class="st1" x1="-13.8" y1="118.3" x2="122.7" y2="-18.2"/>
				<line class="st1" x1="-4.9" y1="118.3" x2="131.6" y2="-18.2"/>
				<line class="st1" x1="3.9" y1="118.3" x2="140.4" y2="-18.2"/>
				<line class="st1" x1="12.8" y1="118.3" x2="149.3" y2="-18.2"/>
				<line class="st1" x1="21.7" y1="118.3" x2="158.2" y2="-18.2"/>
				<line class="st1" x1="30.6" y1="118.3" x2="167.1" y2="-18.2"/>
				<line class="st1" x1="39.5" y1="118.3" x2="176" y2="-18.2"/>
				<line class="st1" x1="48.3" y1="118.3" x2="184.8" y2="-18.2"/>
				<line class="st1" x1="57.2" y1="118.3" x2="193.7" y2="-18.2"/>
				<line class="st1" x1="66.1" y1="118.3" x2="202.6" y2="-18.2"/>
				<line class="st1" x1="75" y1="118.3" x2="211.5" y2="-18.2"/>
				<line class="st1" x1="83.9" y1="118.3" x2="220.4" y2="-18.2"/>
			</g>
		</g>
	</g>
</g>
</svg>
