<?xml version="1.0" encoding="utf-8"?>
<!-- Generator: Adobe Illustrator 24.1.2, SVG Export Plug-In . SVG Version: 6.00 Build 0)  -->
<svg version="1.1" id="Express" xmlns="http://www.w3.org/2000/svg" xmlns:xlink="http://www.w3.org/1999/xlink" x="0px" y="0px"
	 viewBox="0 0 128 128" style="enable-background:new 0 0 128 128;" xml:space="preserve">
<style type="text/css">
	.st0{fill:#FFFFFF;}
</style>
<g id="original">
	<path class="st0" d="M126.7,98.4c-4.6,1.2-7.4,0.1-9.9-3.8c-5.7-8.5-11.9-16.6-18-24.9c-0.8-1.1-1.6-2.1-2.6-3.4
		C89,76,81.8,85.2,75.1,94.8c-2.4,3.4-4.9,4.9-9.4,3.7l26.9-36.1L67.6,29.7c4.3-0.8,7.3-0.4,9.9,3.5c5.8,8.5,12.3,16.6,18.7,25.2
		c6.5-8.5,12.8-16.7,18.8-25.1c2.4-3.4,5-4.7,9.3-3.5c-3.3,4.3-6.5,8.6-9.7,12.9c-4.4,5.7-8.6,11.5-13.2,17.1
		c-1.6,2-1.3,3.3,0.1,5.2C109.9,76,118.2,87.1,126.7,98.4z"/>
	<path class="st0" d="M1.3,61.7c0.7-3.6,1.2-7.3,2.2-10.8c6-21.4,30.6-30.3,47.5-17.1c9.9,7.8,12.4,18.8,11.9,31.1H7.1
		c-0.8,22.2,15.1,35.6,35.5,28.8c7.2-2.4,11.4-8,13.5-15c1.1-3.5,2.8-4.1,6.1-3.1c-1.7,8.8-5.5,16.1-13.5,20.7
		c-12,6.9-29.1,4.6-38.1-4.9C5.3,85.9,3,78.9,2,71.4c-0.1-1.2-0.5-2.4-0.7-3.6C1.3,65.8,1.3,63.8,1.3,61.7z M7.2,60.3h50.4
		c-0.3-16.1-10.3-27.5-24-27.6C18.6,32.6,7.8,43.7,7.2,60.3z"/>
</g>
</svg>
