<?xml version="1.0" encoding="utf-8"?>
<!-- Generator: Adobe Illustrator 24.1.2, SVG Export Plug-In . SVG Version: 6.00 Build 0)  -->
<svg version="1.1" id="Camada_1" xmlns="http://www.w3.org/2000/svg" xmlns:xlink="http://www.w3.org/1999/xlink" x="0px" y="0px"
	 viewBox="0 0 88 66" style="enable-background:new 0 0 88 66;" xml:space="preserve">
<style type="text/css">
	.st0{fill:#FFFFFF;}
	.st1{fill:#DDDDDD;}
</style>
<path class="st0" d="M6,66h14V32L0,17v43C0,63.3,2.7,66,6,66"/>
<path class="st0" d="M68,66h14c3.3,0,6-2.7,6-6V17L68,32"/>
<path class="st1" d="M68,6v26l20-15V9c0-7.4-8.5-11.7-14.4-7.2"/>
<path class="st0" d="M20,32V6l24,18L68,6v26L44,50"/>
<path class="st1" d="M0,9v8l20,15V6l-5.6-4.2C8.5-2.7,0,1.6,0,9"/>
</svg>
