<?xml version="1.0" encoding="utf-8"?>
<!-- Generator: Adobe Illustrator 24.1.2, SVG Export Plug-In . SVG Version: 6.00 Build 0)  -->
<svg version="1.1" id="Capa_1" xmlns="http://www.w3.org/2000/svg" xmlns:xlink="http://www.w3.org/1999/xlink" x="0px" y="0px"
	 viewBox="0 0 405.3 405.3" style="enable-background:new 0 0 405.3 405.3;" xml:space="preserve">
<style type="text/css">
	.st0{fill:#FFFFFF;}
</style>
<path class="st0" d="M366.9,264.5c-23.8,0-47.4-3.7-70-11.1c-10.6-3.7-22.3-1.2-30.4,6.4l-44.3,33.4c-47.6-23.9-86.2-62.5-110.1-110
	l32.5-43.2c8.2-8.2,11.2-20.3,7.6-31.4c-7.4-22.6-11.2-46.3-11.2-70.1c0-17-13.8-30.8-30.8-30.8H38.5c-17,0-30.8,13.8-30.8,30.8
	c0.2,198.3,160.9,359,359.2,359.2c17,0,30.8-13.8,30.8-30.8v-71.6C397.7,278.2,383.9,264.5,366.9,264.5z"/>
<g>
	<path class="st0" d="M387.4,171.9c-5.7,0-10.3-4.6-10.3-10.3C377.1,88,317.4,28.3,243.7,28.2c-5.7,0-10.3-4.6-10.3-10.3
		s4.6-10.3,10.3-10.3c85,0.1,153.9,69,153.9,153.9C397.7,167.3,393.1,171.9,387.4,171.9z"/>
	<path class="st0" d="M305.3,171.9c-5.7,0-10.3-4.6-10.3-10.3c0-28.3-23-51.3-51.3-51.3c-5.7,0-10.3-4.6-10.3-10.3
		c0-5.7,4.6-10.3,10.3-10.3c39.7,0,71.8,32.2,71.8,71.8C315.6,167.3,311,171.9,305.3,171.9z"/>
</g>
</svg>
