<?xml version="1.0" encoding="utf-8"?>
<!-- Generator: Adobe Illustrator 23.0.1, SVG Export Plug-In . SVG Version: 6.00 Build 0)  -->
<svg version="1.1" id="Camada_1" xmlns="http://www.w3.org/2000/svg" xmlns:xlink="http://www.w3.org/1999/xlink" x="0px" y="0px"
	 viewBox="0 0 128 128" style="enable-background:new 0 0 128 128;" xml:space="preserve">
<style type="text/css">
	.st0{fill:#8257E5;}
</style>
<g>
	<g>
		<path class="st0" d="M30.3,50.1c0.5-2.1,1.1-4.7,1.8-7.4c0.3-1.2,1.3-1.4,2.4-1.3c0.3,0,0.6,0.1,0.8,0.3c2.2,1.7,4.1,1.1,6.2-0.5
			c4-3,2.9-2.8,7.7-0.6c1.6,0.7,3.2,1.5,4.8,2.2c1.6,0.7,2.1,0.5,3.1-0.8c6.1-7.9,12.2-15.8,18.4-23.7c1.1-1.4,2.3-2.8,3.3-4.3
			c0.8-1.2,1.9-1.5,3.2-1.2c1.5,0.3,3,0.7,4.6,1c1.5,0.3,1.8-0.1,1.8-1.5c0-0.5,0.2-1.2,0.5-1.6c2.1-2.9,4.3-5.7,6.5-8.5
			c0.3-0.4,1.2-0.7,1.7-0.6c5.1,0.7,10.2,1.5,15.2,2.2c1.6,0.2,2.1,1.4,1,2.7c-2.3,3-4.7,5.9-7,8.8c-1.5,1.8-1.1,2.9,1.2,3.4
			c1.2,0.3,2.5,0.6,3.7,0.9c2.3,0.5,2.9,2.2,1.4,4c-4.6,5.9-9.2,11.8-13.8,17.8c-3.6,4.6-7.2,9.3-10.7,13.9c-1.5,1.9-2.1,2.1-4.3,1
			c-1.7-0.8-3.5-1.6-5.3-2.4c-1.2-0.6-2.2-0.3-3.1,0.6c-1.3,1.2-2.6,2.4-3.9,3.6c-0.9,0.8-1.8,1-2.9,0.4c-0.5-0.3-1-0.5-1.5-0.7
			c-2.2-1.1-2.5-1.1-4.4,0.6c-2.5,2.2-5,4.4-7.5,6.6c-1.6,1.4-3.2,1.5-5,0.4c-5.9-3.7-11.9-7.4-17.8-11.1
			C31.3,53.4,30.3,52.4,30.3,50.1z"/>
		<path class="st0" d="M14,126.5c1.7-2.8,3.3-5.4,4.8-8c0.9-1.4,1.8-2.9,2.6-4.3c0.1-0.2,0.1-0.6,0.1-0.9c-0.3,0-0.7-0.1-0.9,0
			c-0.6,0.2-1.2,0.4-2.2,0.8c0.9-2.2,1.6-4,2.3-5.8c2.8-6.9,5.5-13.8,8.4-20.6c0.3-0.7,1-1.3,1.7-1.7c1.2-0.7,2.5-1.4,3.9-1.9
			c0.6-0.2,1.5-0.2,1.9,0.2c2,1.4,3.9,2.8,5.7,4.4c0.5,0.4,0.9,1.3,0.9,1.9c0,2.2-0.3,4.4-0.5,6.5c-0.1,0.5-0.3,1.1-0.7,1.4
			c-9.1,9.2-18.3,18.5-27.4,27.7C14.4,126.2,14.3,126.3,14,126.5z"/>
		<path class="st0" d="M38.3,62.4c1.8,1.1,3.5,2.2,5.3,3.4c5.6,3.6,11.1,7.2,16.7,10.8c0.2,0.1,0.5,0.2,0.6,0.4
			c0.2,0.2,0.3,0.5,0.5,0.8c-0.2,0.1-0.5,0.3-0.7,0.3c-1.8,0.2-3.5,0.5-5.3,0.5c-1.5,0.1-2.6,0.7-3.6,1.6c-1.6,1.5-3.3,2.9-4.9,4.4
			c-0.9,0.8-1.7,0.8-2.6,0.1c-1.7-1.3-3.4-2.7-5.1-4c-1-0.7-0.8-1.7-0.6-2.6c0.5-2.1,1-4.3,1.6-6.4c0.3-1.1,0.3-2.1-0.1-3.2
			c-0.7-1.6-1.2-3.2-1.8-4.9c-0.1-0.4-0.2-0.8-0.3-1.1C38.1,62.6,38.2,62.5,38.3,62.4z"/>
	</g>
</g>
</svg>
