<?xml version="1.0" encoding="utf-8"?>
<!-- Generator: Adobe Illustrator 24.1.2, SVG Export Plug-In . SVG Version: 6.00 Build 0)  -->
<svg version="1.1" id="Layer_1" xmlns="http://www.w3.org/2000/svg" xmlns:xlink="http://www.w3.org/1999/xlink" x="0px" y="0px"
	 viewBox="0 0 418.1 418.1" style="enable-background:new 0 0 418.1 418.1;" xml:space="preserve">
<style type="text/css">
	.st0{fill:#FFFFFF;}
</style>
<g>
	<path class="st0" d="M4.1,200.4c0-4,0-8,0-12c3.5-4.8,8.3-7.6,13.7-9.6C142,132.5,266.2,86.2,390.3,39.7c9.4-3.5,17.2-2.9,23.7,5.2
		c0,5.1,0,10.3,0,15.4c-2.1,9.1-4.3,18.2-6.2,27.4c-18.9,91-37.8,182-56.7,273c-2.5,12-9.4,18.7-19.4,19.6c-7,0.6-12.6-2.4-18.1-6.3
		c-27.6-20.1-55.4-39.9-82.8-60.3c-6.3-4.7-10.3-4.3-15.8,1.1c-14.2,14-28.7,27.6-43.5,41c-10.7,9.7-22.3,6.5-27.6-7
		c-0.8-2.1-1.5-4.3-2.2-6.5c-10.6-31.8-21.4-63.6-31.8-95.5c-2.1-6.4-5.5-9.8-11.9-11.7c-26.2-7.8-52.2-16-78.3-24
		C13.4,209.1,7.3,206.8,4.1,200.4z M158.2,315.5c1-9.5,2.4-16.5,2.4-23.4c0.1-20.1,7.3-35,23.4-48.9
		c50.7-43.6,99.7-89.2,149.3-134.1c2.5-2.2,7.4-4.5,4.1-8.8c-2.5-3.3-5.8-0.1-8.2,1.5c-64.1,40.9-128.1,81.8-192.3,122.6
		c-5.1,3.2-4.9,6.7-3.5,11.5c7.5,24.2,14.7,48.5,22.1,72.7C156.1,310.1,156.7,311.5,158.2,315.5z"/>
</g>
</svg>
