<?xml version="1.0" encoding="utf-8"?>
<!-- Generator: Adobe Illustrator 24.1.2, SVG Export Plug-In . SVG Version: 6.00 Build 0)  -->
<svg version="1.1" id="Camada_1" xmlns="http://www.w3.org/2000/svg" xmlns:xlink="http://www.w3.org/1999/xlink" x="0px" y="0px"
	 viewBox="0 0 512 512" style="enable-background:new 0 0 512 512;" xml:space="preserve">
<style type="text/css">
	.st0{fill:#FFFFFF;}
</style>
<g>
	<path class="st0" d="M29.8,382.4l-9.4,9.4c-5.9,5.9-5.9,15.5,0,21.4l78.4,78.4c5.9,5.9,15.5,5.9,21.4,0l9.4-9.4
		c5.9-5.9,5.9-15.5,0-21.4l-78.4-78.4C45.3,376.5,35.7,376.5,29.8,382.4z"/>
	<path class="st0" d="M274.2,95.5c-4.3-0.8-8.9,0.2-12.4,3.1c-0.7,0.5-1.3,1.2-1.8,1.8l-204.5,247c-0.2,0.3-0.5,0.5-0.7,0.8
		c-5.5,5.9-5.4,15.2,0.4,21l87.5,87.5c5.8,5.8,15.1,5.9,21,0.4c0.3-0.2,0.5-0.5,0.8-0.7l35.6-29.5c30.2,27,76.5,28.6,108.6,1.9
		c32-26.6,39-72.1,18.1-106.7l84.7-70.1c0.7-0.5,1.3-1.1,1.8-1.8c2.9-3.6,4-8.1,3.1-12.4c-12.7-8.6-42-35-74.6-67.6
		C309.2,137.5,282.8,108.2,274.2,95.5z M294.1,411.4c-22.4,18.7-54.3,18.3-76.3,0.9l91.2-75.5C322,361.6,316.5,392.8,294.1,411.4z"
		/>
	<path class="st0" d="M406.7,87.2l-54.1,54.1c-5,5-5,13.1,0,18c5,5,13.1,5,18,0l54.1-54.1c5-5,5-13.1,0-18
		C419.8,82.3,411.7,82.3,406.7,87.2z"/>
	<path class="st0" d="M329.3,105.3V28.8c0-7-5.7-12.8-12.8-12.8l0,0c-7,0-12.8,5.7-12.8,12.8v76.6c0,7,5.7,12.8,12.8,12.8
		C323.5,118.1,329.3,112.4,329.3,105.3z"/>
	<path class="st0" d="M406.7,182.7c-7,0-12.8,5.7-12.8,12.8c0,7,5.7,12.8,12.8,12.8h76.6c7,0,12.8-5.7,12.8-12.8
		c0-7-5.7-12.8-12.8-12.8H406.7z"/>
</g>
</svg>
