<?xml version="1.0" encoding="utf-8"?>
<!-- Generator: Adobe Illustrator 24.1.2, SVG Export Plug-In . SVG Version: 6.00 Build 0)  -->
<svg version="1.1" id="Camada_1" xmlns="http://www.w3.org/2000/svg" xmlns:xlink="http://www.w3.org/1999/xlink" x="0px" y="0px"
	 viewBox="0 0 512 512" style="enable-background:new 0 0 512 512;" xml:space="preserve">
<style type="text/css">
	.st0{fill:#FFFFFF;}
</style>
<g>
	<path class="st0" d="M127.6,228.5c4.1-9.2,4.3-18.5-0.7-27.5c-4.3-7.9-11.7-10.7-20.1-11.6c-6.1-0.6-12.2-0.2-18.2,0.7
		c-1.5,0.2-2.4-0.2-3.2-1.5c-2.6-4.1-5.1-8.4-8.1-12.2c-5.9-7.5-13.8-11-23.3-9.2c-17.2,3.2-30.1,18.3-30.5,35.9
		c-0.1,4.5-4.4,15.6-7.4,16.6c0.4,0.4,0.7,0.8,1.1,1.2c3.5,3.3,7.1,6.5,10.8,9.6c17.2,14.8,35.8,27.7,55.9,38.5
		c7.7,4.2,15.7,7.7,23.5,11.6c0.1-0.8,0.1-1.6,0.3-2.3c1.6-5.1,1.3-10.1,0.1-15.2c-2.7-10.8-9-18.1-20.1-20.8
		c-1.5-0.4-2.9-0.6-4.5-0.8c-0.2-2.6-0.4-5.1-0.6-7.6c0-0.2,0-0.4,0-0.5c0.1-3.5,1-4.4,4.5-4.2c0.6,0,1.2,0.1,1.8,0.2
		c9.9,1.2,17.6,6.3,23.9,13.7c0.8,1,1.4,1.1,2.5,0.4C120.7,239.6,124.9,234.6,127.6,228.5z"/>
	<path class="st0" d="M229,282.1c-0.3-1.2-0.9-1.6-2-1.9c-3.9-1-7.8-2.1-11.7-3.3c-6.1-2-12-4.4-16.8-8.9c-5.2-4.8-8.2-11-11-17.3
		c-1.7-3.8-3.3-7.8-4.9-11.7c-15.1,1.8-28.2-3.2-40.4-11.6c-0.2,0.4-0.4,0.6-0.4,0.9c-3.1,10.1-8.7,18.4-17.4,24.5
		c-2.5,1.7-3.7,4.3-3.4,7.4c0.1,1.4,0.3,2.8,0.6,4.1c1.8,7.5,0.9,14.6-2.7,21.4c8.9,3.1,17.8,6.6,26.8,9.4
		c13.8,4.3,27.8,7.5,42.1,9.6c8.6,1.2,17.3,2.3,26,3.1c6.8,0.6,13.6,0.6,20.4,0.8c0-1,0.1-2.1-0.1-3.1
		C232.5,297.6,230.7,289.8,229,282.1z"/>
	<path class="st0" d="M79.6,160.1c4.2,4.2,8.4,8.3,12.6,12.5c1.8,1.8,4.1,2.4,6.6,2.4c3.1-0.1,6.3-0.2,9.4,0
		c15.8,1.5,28.1,11.7,32.7,27c1.1,3.7,2.7,7.1,5.1,10.1c3.9,4.9,9,8.1,14.4,11c13.5,7.3,29.3,4.2,38.7-8c3.6-4.7,6.7-9.9,9.6-15.1
		c1.8-3.3,4.1-4.9,7.9-4.2c0.3,0.1,0.6,0,0.9,0.1c6,0.5,12.1,0.5,18-0.9c10.4-2.5,18.7-8,23.1-18.1c4.8-10.9,2.6-21.2-3.9-30.7
		c-3.9-5.8-9.3-10-15.2-13.4c-2.7-1.6-4.5-3.7-5.2-6.8c-0.6-2.9-1.4-5.9-2.1-8.8c-1.6-6.9-4.4-13.2-9.8-18
		c-9.7-8.7-21.3-11.8-34-9.9c-17.9,2.8-30.5,13-37.7,29.5c-2.3,5.3-3.7,10.9-5.6,16.6c-0.6-0.4-1.2-1-2-1.4c-4.1-2.5-8-5.5-12.4-7.4
		c-12.1-5.1-24.2-3.9-36,1.2c-9.9,4.3-16.2,11.7-18.6,22.3c-0.8,3.6,0.1,6.4,2.5,8.9C78.8,159.3,79.2,159.7,79.6,160.1z"/>
	<path class="st0" d="M480.8,314.1c13.1-15,17.5-32.5,14.2-52c-1.9-11.6-5.2-22.7-10.9-33c-5.9-10.6-14.2-18.8-25.2-24.1
		c-0.5-0.2-1.4-0.1-1.9,0.2c-5.5-2.2-11.5-3-17.9-2.5c-2.7,0.2-5.4-0.2-8.5-0.3c6.3-19,3.9-36-10.8-50.3
		c-14.4-14.1-31.4-16.8-50.1-11.4c-1.5-4.1-2.7-8.1-4.3-11.9c-8.8-20.9-24.4-34.1-45.9-40.5c-12.7-3.8-25.7-6.1-39.1-5.4
		c-13.8,0.7-26.2,5.1-37.1,13.6c-0.5,0.4-0.8,1.5-0.7,2.1c1.4,6.4,3.1,12.8,4.5,19.2c0.7,3,2.3,5.2,4.8,7
		c5.8,4.1,10.8,8.9,14.8,14.8c5.6,8.4,7.7,17.7,7.2,27.7c0,0.8-0.1,1.6,0,2.3c0.2,1.7,1,2.9,2.9,3.5c10.4,3,20.7,3.3,31-0.2
		c0.8-0.3,1.6-0.6,2.5-0.9c-3.9-15.6-1.8-30,8.3-43c3.3,2.7,6.6,5.3,10,8.1c-0.5,0.8-0.9,1.6-1.4,2.3c-3.2,5.4-5.7,10.9-6.1,17.3
		c-0.6,9.4,3.4,16.7,10.2,22.8c5.8,5.2,12.9,7.4,20.5,8.4c3,0.4,6.1,0.6,9.3,1c0.3,4.2,0.5,8.3,0.8,12.5c-2.9,0-5.8,0.1-8.6,0
		c-7.4-0.4-14.7-1.7-21.2-5.3c-3-1.7-5.9-3.6-8.4-5.9c-4.6-4.2-9.6-5.5-15.5-3.5c-9,3-18.3,2.9-27.5,1.1c-3.4-0.6-6.7-1.5-10.1-2.3
		c-1.1-0.3-1.8-0.1-2.5,1c-8.4,13.5-20.4,21.2-36.1,23.5c-2.5,0.4-5,0.7-7.6,0.7c-3.2,0-5.3,1.5-6.7,4c-2.7,4.7-5.9,9-10,12.6
		c-2.2,2-4.7,3.8-7.1,5.6c-2.6,1.9-3.7,4.5-3,7.7c3.1,13.8,15.3,24.9,29.3,26.5c0.8,0.1,1.7,0.2,2.5,0.3c3.2,0.3,5.4-1.1,7.2-3.8
		c2.9-4.5,5.8-9.1,9.4-13c7.9-8.6,18-13,29.5-14.3c17.8-2,33.5,3.3,47.4,14.3c1.1,0.9,1.7,0.8,2.8,0.1c2.8-2.1,5.7-4.1,8.6-6.1
		c7.7-5.2,16.4-7.6,25.5-8.3c16.7-1.3,30.9,4.9,43.9,14.8c1.4,1.1,2.7,2.2,4.1,3.3c0.5,0.4,1,0.8,1.5,1c0.8,2.4,2.1,5.2,2.2,6.2
		c1.7,9.4,5.5,17.6,12.2,24.4c0.5,0.5,1.1,1,1.7,1.6c10.8-9.2,23-13.1,37.3-10.2c-0.8,3.7-1.7,7.3-2.5,11c-0.8-0.1-1.6-0.1-2.4-0.2
		c-5.5-0.4-10.8-0.2-16,1.9c-7.7,3.2-11.9,9.2-14.1,16.9c-1.8,6.6-0.8,13.1,1.3,19.4c0.9,2.6,1.9,5.1,2.8,7.7
		c-3.2,1.8-6.4,3.6-9.6,5.5c-1.1-2.3-2.3-4.5-3.3-6.8c-2.6-6-4.4-12.3-4-18.9c0.2-3,0.6-6.1,1.4-8.9c1.5-5.3,0.6-9.7-3.3-13.6
		c-5.9-6-9.4-13.3-11.6-21.3c-0.4-1.3-0.7-2.6-1-3.9c0.2-0.1,0.3-0.2,0.5-0.3c-0.3-0.6-0.6-1.1-0.9-1.6c-0.2-1-0.5-2.1-0.7-3.1
		c-0.2-1-0.6-1.5-1.8-1.6L396,260c-0.8-0.7-1.7-1.3-2.6-2c-10.9-7.7-23.1-10.2-36.1-7.8c-11.9,2.2-21.4,8.2-27.7,18.8
		c-0.8,1.3-1.4,2.6-2.2,4c-1.9-2-3.4-4.2-5.5-5.7c-6.7-4.9-13.3-10-20.4-14.1c-8.2-4.7-17.3-6.2-26.8-3.9
		c-10.2,2.4-18.1,8.4-24.2,16.7c-5.4,7.4-7.6,15.7-6.5,24.9c0.8,6.2,2.8,12,5.8,17.5c-3.1,29.8,40.7,77,55.2,63.3
		c29.4-27.7,42.7,67.2,69.7,46.6c4.2-3.2,7.7-6.9,10.7-11c-0.6-1.2-0.6-2.5-0.3-4c0.4-1.5,0.7-3,1-4.5c2.8-14.1,2.2-27.8-5.4-40.5
		c-4.1-6.9-9.3-12.9-16.5-17c-2.7-1.5-5.4-3-8.1-4.4c-3-30.5-14.8-39.6-20.8-42.8c5.4-1.6,10.7-3.4,15.9-5.4
		c6.3,4.5,15.3,15,17.8,41c2.7,1.4,5.5,2.9,8.1,4.4c7.1,4.1,12.4,10,16.5,17c7.5,12.7,8.2,26.4,5.4,40.5c-0.3,1.5-0.7,3-1,4.5
		c-0.6,2.5,0,4.5,2.1,6.1c1.3,1,2.4,2.1,3.6,3.2c0.4,0.3,0.6,0.8,0.9,1.3l0,0c0.1,0.1,0.2,0.2,0.3,0.3c0.5,0.3,1,0.6,1.5,0.9
		c15.5,8.6,31.6,15.8,48.4,21.5c0-0.5,0-1,0.1-1.4c2.4-9.5,1-18.3-4-26.7c-1.2-2-1.9-4.3-3-6.8c17.5-2.4,30-10.9,35.6-28.1
		c5.6-16.9,1.1-31.4-10.5-44.1C475.7,319.4,478.4,316.9,480.8,314.1z"/>
</g>
</svg>
