<?xml version="1.0" encoding="utf-8"?>
<!-- Generator: Adobe Illustrator 24.1.2, SVG Export Plug-In . SVG Version: 6.00 Build 0)  -->
<svg version="1.1" id="Camada_1" xmlns="http://www.w3.org/2000/svg" xmlns:xlink="http://www.w3.org/1999/xlink" x="0px" y="0px"
	 viewBox="0 0 512 512" style="enable-background:new 0 0 512 512;" xml:space="preserve">
<style type="text/css">
	.st0{fill:#FFFFFF;}
</style>
<g>
	<path class="st0" d="M173.2,140.1c0-4.6,3.7-8.3,8.3-8.3h57.9c4.6,0,8.3,3.7,8.3,8.3V165h16.6v-24.8c0-4.6,3.7-8.3,8.3-8.3h57.9
		c4.6,0,8.3,3.7,8.3,8.3v8.3h8.3V107c0-50.3-40.8-91-91-91c-50.3,0-91,40.8-91,91v41.4h8.3V140.1z"/>
	<path class="st0" d="M322.2,184.4v-36h-41.4v36.8C292.3,191.6,305.6,191.3,322.2,184.4z M297.3,156.7h8.3c4.6,0,8.3,3.7,8.3,8.3
		c0,4.6-3.7,8.3-8.3,8.3h-8.3c-4.7,0-8.3-3.7-8.3-8.3C289.1,160.4,292.8,156.7,297.3,156.7z"/>
	<path class="st0" d="M380.1,185.7v-24.8c0-6.8-5.6-12.4-12.4-12.4h-4.1v49.7h4.1C374.5,198.1,380.1,192.5,380.1,185.7z"/>
	<path class="st0" d="M131.8,160.8v24.8c0,6.8,5.6,12.4,12.4,12.4h4.1v-49.7h-4.1C137.4,148.4,131.8,154,131.8,160.8z"/>
	<path class="st0" d="M231.1,184.4v-36h-41.4v36.8C201.2,191.6,214.6,191.3,231.1,184.4z M206.3,156.7h8.3c4.6,0,8.3,3.7,8.3,8.3
		c0,4.6-3.7,8.3-8.3,8.3h-8.3c-4.6,0-8.3-3.7-8.3-8.3C198,160.4,201.7,156.7,206.3,156.7z"/>
	<path class="st0" d="M420.6,361.4l-99.7-21c-8.4,33.4-53.8,74.1-59.5,79c-3.1,2.7-7.8,2.7-10.9,0c-5.7-5-51.1-45.6-59.5-79
		l-99.7,21c-26.9,5.6-48.5,25.7-56.2,52.1L17.9,496h72.5v-49.7c0-4.6,3.7-8.3,8.3-8.3c4.6,0,8.3,3.7,8.3,8.3V496h297.9v-49.7
		c0-4.6,3.7-8.3,8.3-8.3c4.6,0,8.3,3.7,8.3,8.3V496h72.6l-17.3-82.4C469.2,387.1,447.5,367,420.6,361.4z"/>
	<path class="st0" d="M231.1,322.2c-8.4,0-16.8-1.3-24.8-3.8v12.1c0,11,9.5,27.9,26.9,48c8.7,9.9,17.4,18.5,22.8,23.6
		c17.7-16.6,49.7-50.9,49.7-71.6v-12.1c-8.1,2.6-16.4,3.8-24.8,3.8H231.1z"/>
	<path class="st0" d="M280.8,305.7c36.5,0,66.2-29.7,66.2-66.2V165h-8.3v24.8c0,3.2-1.9,6.1-4.8,7.4c-12.8,6.2-24.5,9.2-35.4,9.2
		c-11.1,0.1-21.8-3.4-30.8-9.8c-2.2-1.6-3.5-4.1-3.5-6.8v-8.3h-16.6v8.3c0,3.2-1.9,6.1-4.8,7.4c-12.8,6.2-24.5,9.2-35.4,9.2
		c-11.1,0.1-21.8-3.4-30.8-9.8c-2.2-1.6-3.5-4.1-3.5-6.8V165h-8.3v74.5c0,36.5,29.6,66.2,66.2,66.2H280.8z M264.2,280.8h-16.6
		c-4.6,0-8.3-3.7-8.3-8.3c0-4.6,3.7-8.3,8.3-8.3h16.6c4.6,0,8.3,3.7,8.3,8.3C272.5,277.1,268.8,280.8,264.2,280.8z M222.8,247.7
		c0-4.6,3.7-8.3,8.3-8.3h49.7c4.6,0,8.3,3.7,8.3,8.3c0,4.6-3.7,8.3-8.3,8.3h-49.7C226.6,256,222.8,252.3,222.8,247.7z"/>
</g>
</svg>
