<?xml version="1.0" encoding="utf-8"?>
<!-- Generator: Adobe Illustrator 24.1.2, SVG Export Plug-In . SVG Version: 6.00 Build 0)  -->
<svg version="1.1" id="Camada_1" xmlns="http://www.w3.org/2000/svg" xmlns:xlink="http://www.w3.org/1999/xlink" x="0px" y="0px"
	 viewBox="0 0 512 512" style="enable-background:new 0 0 512 512;" xml:space="preserve">
<style type="text/css">
	.st0{fill:#FFFFFF;}
</style>
<g>
	<path class="st0" d="M308.8,58.8c-2.8,4.9-6.7,9.9-11.2,14.4L92.4,278.5c-7.4,26.7-13.1,55-14.5,82.4l0,0c-0.2,2.2-0.4,4.5-0.5,6.8
		c-2.4,68.1,60,125.5,139.3,128.2c50.1,1.8,95-18.7,121.8-51.2c11-68.7,54.3-126.2,113.3-157c13.6-20.9,21.7-44.9,22.6-70.8
		C477.4,133.3,403.4,62.7,308.8,58.8z M265.4,443.5c-15.4,0-27.9-12.5-27.9-27.9c0-15.4,12.5-27.9,27.9-27.9
		c15.4,0,27.9,12.5,27.9,27.9C293.4,431,280.9,443.5,265.4,443.5z M271.2,355.4c-15.4,0-27.9-12.5-27.9-27.9
		c0-15.4,12.5-27.9,27.9-27.9c15.4,0,27.9,12.5,27.9,27.9C299.2,342.9,286.7,355.4,271.2,355.4z M321.3,282.6
		c-15.4,0-27.9-12.5-27.9-27.9s12.5-27.9,27.9-27.9c15.4,0,27.9,12.5,27.9,27.9S336.7,282.6,321.3,282.6z M408.9,254.7
		c-15.4,0-27.9-12.5-27.9-27.9c0-15.4,12.5-27.9,27.9-27.9c15.4,0,27.9,12.5,27.9,27.9C436.9,242.1,424.4,254.7,408.9,254.7z"/>
	<path class="st0" d="M144,149.3c0,0-11.7,21.6-25.4,54.2L259,63.1C207.4,74.5,165,106.6,144,149.3z"/>
	<path class="st0" d="M40.1,282c-2.3,2.3-3.3,5-2.3,6l10.3,10.3l10.3,10.3c1,1,3.7,0,6-2.3l27.9-27.9c7.7-27.8,17.4-53.8,26.3-75
		L40.1,282z"/>
	<path class="st0" d="M307.6,58.7c0.4,0,0.8,0,1.3,0.1c0.3-0.5,0.5-0.9,0.8-1.4l20.2-37.6c1.7-3.2,0.1-4.8-3.1-3.1l-37.6,20.2
		c-5.4,2.9-10.9,7.1-15.8,12L259,63.1C274.5,59.7,290.8,58.1,307.6,58.7z"/>
</g>
</svg>
