<?xml version="1.0" encoding="utf-8"?>
<!-- Generator: Adobe Illustrator 24.1.2, SVG Export Plug-In . SVG Version: 6.00 Build 0)  -->
<svg version="1.1" id="Camada_1" xmlns="http://www.w3.org/2000/svg" xmlns:xlink="http://www.w3.org/1999/xlink" x="0px" y="0px"
	 viewBox="0 0 512 512" style="enable-background:new 0 0 512 512;" xml:space="preserve">
<style type="text/css">
	.st0{fill:#FFFFFF;}
</style>
<g>
	<path class="st0" d="M427.6,187.6C427.6,92.8,350.8,16,256,16C161.2,16,84.4,92.8,84.4,187.6c0,67,38.4,125,94.4,153.3
		c-0.1,0.6-0.1,1.2-0.1,1.8v52.3c0,2,0.5,4,1.6,5.8l33.8,58.5c2.1,3.6,21.4,36.7,25.5,36.7h33c4.1,0,23.5-33.2,25.5-36.7l33.8-58.5
		c1-1.8,1.6-3.8,1.6-5.8v-52.3c0-0.6-0.1-1.2-0.1-1.8C389.2,312.6,427.6,254.6,427.6,187.6z M298.6,392.9c0,2-0.5,4-1.6,5.8
		l-16.4,28.4c-2.1,3.6-5.9,5.8-10.1,5.8h-29.2c-4.1,0-8-2.2-10.1-5.8L215,398.7c-1-1.8-1.6-3.8-1.6-5.8v-39
		c13.6,3.5,27.9,5.3,42.6,5.3s28.9-1.8,42.6-5.3V392.9z M273.4,325.8V291c0-4.1-3.4-7.5-7.5-7.5h-19.9c-4.1,0-7.5,3.4-7.5,7.5v34.8
		c-68.7-8.6-121.8-67.2-121.8-138.2c0-76.9,62.3-139.3,139.3-139.3s139.3,62.3,139.3,139.3C395.3,258.6,342.1,317.2,273.4,325.8z"/>
	<path class="st0" d="M260.1,203h-8.2c-4.1,0-7.5,3.4-7.5,7.5v48c0,4.1,3.4,7.5,7.5,7.5h8.2c4.1,0,7.5-3.4,7.5-7.5v-48
		C267.6,206.4,264.2,203,260.1,203z"/>
	<path class="st0" d="M213.1,226c-2.1-3.6-6.7-4.8-10.2-2.7l-7.1,4.1c-3.6,2.1-4.8,6.7-2.7,10.2l24,41.6c2.1,3.6,6.7,4.8,10.2,2.7
		l7.1-4.1c3.6-2.1,4.8-6.7,2.7-10.2L213.1,226z"/>
	<path class="st0" d="M316.2,227.4l-7.1-4.1c-3.6-2.1-8.2-0.8-10.2,2.7l-24,41.6c-2.1,3.6-0.8,8.2,2.7,10.2l7.1,4.1
		c3.6,2.1,8.2,0.8,10.2-2.7l24-41.6C321,234.1,319.8,229.5,316.2,227.4z"/>
</g>
</svg>
