<?xml version="1.0" encoding="utf-8"?>
<!-- Generator: Adobe Illustrator 24.1.2, SVG Export Plug-In . SVG Version: 6.00 Build 0)  -->
<svg version="1.1" id="Camada_1" xmlns="http://www.w3.org/2000/svg" xmlns:xlink="http://www.w3.org/1999/xlink" x="0px" y="0px"
	 viewBox="0 0 512 512" style="enable-background:new 0 0 512 512;" xml:space="preserve">
<style type="text/css">
	.st0{fill:#FFFFFF;}
</style>
<path class="st0" d="M238.3,28.5l-215,215c-4.7,4.7-7.3,11-7.3,17.7v204.6c0,13.8,11.2,25,25,25h430c13.8,0,25-11.2,25-25V261.2
	c0-6.6-2.6-13-7.3-17.7l-215-215C263.9,18.7,248.1,18.7,238.3,28.5z M219.2,445.8H206c-13.8,0-25-11.2-25-25v-13.2
	c0-13.8,11.2-25,25-25h13.2c13.8,0,25,11.2,25,25v13.2C244.2,434.6,233,445.8,219.2,445.8z M219.2,359H206c-13.8,0-25-11.2-25-25
	v-13.2c0-13.8,11.2-25,25-25h13.2c13.8,0,25,11.2,25,25V334C244.2,347.8,233,359,219.2,359z M306,445.8h-13.2c-13.8,0-25-11.2-25-25
	v-13.2c0-13.8,11.2-25,25-25H306c13.8,0,25,11.2,25,25v13.2C331,434.6,319.8,445.8,306,445.8z M306,359h-13.2c-13.8,0-25-11.2-25-25
	v-13.2c0-13.8,11.2-25,25-25H306c13.8,0,25,11.2,25,25V334C331,347.8,319.8,359,306,359z"/>
</svg>
