<?xml version="1.0" encoding="utf-8"?>
<!-- Generator: Adobe Illustrator 24.1.2, SVG Export Plug-In . SVG Version: 6.00 Build 0)  -->
<svg version="1.1" id="Camada_1" xmlns="http://www.w3.org/2000/svg" xmlns:xlink="http://www.w3.org/1999/xlink" x="0px" y="0px"
	 viewBox="0 0 512 512" style="enable-background:new 0 0 512 512;" xml:space="preserve">
<style type="text/css">
	.st0{fill:#FFFFFF;}
</style>
<g>
	<path class="st0" d="M135.6,190.9l7,11c3.6,5.7,1.8,13.3-4.1,16.7l-65.2,38.1c-7.9,4.6-7.9,16.1,0.1,20.7l65,37.2
		c5.9,3.4,7.8,11,4.1,16.8l-7.6,11.9c-3.5,5.5-10.8,7.2-16.4,3.7l-88.4-54.9c-8.8-5.5-14.1-15.1-14.1-25.4v0c0-9.8,5.1-18.9,13.4-24
		l89.8-55.7C124.8,183.6,132.1,185.3,135.6,190.9z"/>
	<path class="st0" d="M202.6,385.3l-13.9-6.4c-6.1-2.8-8.7-10-5.8-16.1l111.1-230.5c2.8-5.9,9.9-8.4,15.8-5.7l13.7,6.3
		c6.1,2.8,8.7,10,5.8,16.1L218.3,379.6C215.5,385.5,208.5,388,202.6,385.3z"/>
	<path class="st0" d="M393.2,187.2l89.2,55.2c8.5,5.2,13.6,14.5,13.6,24.4v0c0,10.3-5.3,20-14.1,25.4l-88.6,55
		c-5.5,3.4-12.7,1.8-16.3-3.5l-7.2-10.9c-3.8-5.7-2-13.5,3.9-16.9l65.2-38.3c7.9-4.7,7.9-16.2-0.1-20.7l-65.2-37.1
		c-5.9-3.4-7.8-10.9-4.3-16.7l7.4-12C380.2,185.4,387.6,183.7,393.2,187.2z"/>
</g>
</svg>
