<?xml version="1.0" encoding="utf-8"?>
<!-- Generator: Adobe Illustrator 24.1.2, SVG Export Plug-In . SVG Version: 6.00 Build 0)  -->
<svg version="1.1" id="Camada_1" xmlns="http://www.w3.org/2000/svg" xmlns:xlink="http://www.w3.org/1999/xlink" x="0px" y="0px"
	 viewBox="0 0 512 512" style="enable-background:new 0 0 512 512;" xml:space="preserve">
<style type="text/css">
	.st0{fill:#FFFFFF;}
</style>
<path class="st0" d="M426,135.5C383.7,67.8,323.5,27.2,251.9,18c-58.7-7.5-122.2,6.4-184.8,40.3c-13,7.1-17.4,23.6-9.6,36.2v0
	c7.5,11.9,22.9,15.9,35.3,9.3c52.6-28.3,104.9-40.1,152.4-34c56.3,7.2,102.3,38.7,136.4,93.4c52.9,84.7,49.8,192-7.9,273.5
	c-6.4,9-15.2,7.3-18.7,6.2c-3.6-1.1-11.8-5-11.8-16.1l0.1-88.6c6.1-35.6-0.3-73.6-20.9-106.6c-44.6-71.3-138.9-93.1-210.3-48.5
	C40.9,227.6,19.1,322,63.7,393.3c28.9,46.3,78.7,71.7,129.6,71.7c27.6,0,55.5-7.5,80.6-23.1c6.1-3.8,11.8-8,17.2-12.5
	c1,29.5,19.7,54.2,48.1,63.2c7.2,2.3,14.5,3.4,21.6,3.4c21.8,0,42.2-10.4,55.5-29.2c33.7-47.5,52.6-103.5,54.9-161.9
	C473.5,245.1,457.8,186.5,426,135.5z M246.3,397.6c-22.7,14.2-49.7,18.7-75.8,12.7c-26.1-6-48.3-21.9-62.6-44.6
	c-14.2-22.7-18.7-49.7-12.7-75.8c6-26.1,21.9-48.3,44.6-62.6c16.2-10.1,34.4-15.3,53-15.3c7.5,0,15.1,0.8,22.6,2.6
	c25.6,5.9,48.1,21.7,62.2,43.8c6.5,10.3,11.1,21.4,13.6,32.9l-0.1,42.2c-0.1,0.5-0.2,1-0.3,1.5C284.9,361.2,269,383.4,246.3,397.6z"
	/>
</svg>
