<?xml version="1.0" encoding="utf-8"?>
<!-- Generator: Adobe Illustrator 24.1.2, SVG Export Plug-In . SVG Version: 6.00 Build 0)  -->
<svg version="1.1" id="Camada_1" xmlns="http://www.w3.org/2000/svg" xmlns:xlink="http://www.w3.org/1999/xlink" x="0px" y="0px"
	 viewBox="0 0 2500 1756" style="enable-background:new 0 0 2500 1756;" xml:space="preserve">
<style type="text/css">
	.st0{fill:#FFFFFF;}
</style>
<path class="st0" d="M2497.1,618.3c-9.4-141.9-11-323.4-103.8-469.3c-43.1-56.8-116.6-100.9-194.9-115.6
	C2100.3,14.8,1682,0.1,1250.9,0.1c-432.1,0-849.4,14.7-947.4,33.3C240.9,45.1,185,73.5,137,117.6C35.3,211.9,27.9,373.4,12.6,509.5
	c-18.6,246.4-15,467,0,736.7c9.8,119.5,16.7,168.5,34.3,227.3c20.5,70.6,47,121.5,80.3,154.8c43.1,44.1,101.9,74.4,169.5,88.1
	c100,20.6,262.6,28.5,738.7,37.2l0,0c397.1,6.4,746.9-0.4,1159-31.4c65.8-11.3,126.7-42.4,174.4-89.1c30.4-30.4,48-57.8,68.6-109.7
	c33.3-82.3,45.1-161.6,59.7-385.9C2501,1069.9,2501,685.9,2497.1,618.3z M1609.8,883.2c-109.4,60.7-25.7,14.3-25.8,14.3l-0.4-0.3
	c-175.8,93.2-388.3,195.6-591.3,305.9V499.7c0,0,0.3,0.2,1,0.5v-1.5c224.2,117.5,443.6,231,672.7,353.5c-0.1,0.1-0.3,0.1-0.4,0.2
	h0.7C1648,862.6,1629.1,872.8,1609.8,883.2z"/>
</svg>
