<?xml version="1.0" encoding="utf-8"?>
<!-- Generator: Adobe Illustrator 24.1.2, SVG Export Plug-In . SVG Version: 6.00 Build 0)  -->
<svg version="1.1" id="Camada_1" xmlns="http://www.w3.org/2000/svg" xmlns:xlink="http://www.w3.org/1999/xlink" x="0px" y="0px"
	 viewBox="0 0 1000 1000" style="enable-background:new 0 0 1000 1000;" xml:space="preserve">
<style type="text/css">
	.st0{fill:#FF4B4B;}
</style>
<path class="st0" d="M953.4,809.3c-132.3,0-247.9-89.4-281.1-217.4L531.2,49c-0.3-0.7-0.7-1.3-1.1-2l-9.4-20.6
	C509.8,2.5,477.8-7.3,452.9,5.8l-208.6,109c-6.2,3.2-3,11.7,4,11l182.3-18.2c5.2-0.5,9.2,4.2,7.2,8.6L324.8,586.7
	c-6.6,27.7-17.3,54.2-31.7,78.8c5.3,2.7,10.7,5.3,16.1,7.9c122.2,57.3,252.9,70.4,371.2,45.5c-112.8,66.9-262.6,76.4-398.5,12.7
	c-9.5-4.4-18.7-9.2-27.7-14.2c-54.9,58.6-131.6,91.9-211.9,91.9l0,0C42.3,914.6,247.2,1000,500,1000s457.7-85.4,457.7-190.7H953.4z"
	/>
<path class="st0" d="M672.1,591.7l-141-542.8c-0.3-0.7-0.7-1.3-1.1-2l-9.5-20.6c-4.3-9.1-11.6-16.5-20.7-20.9v721.9
	c60.2,6.7,121.1,3.9,180.4-8.5c-53.6,31.8-115.6,50.6-180.4,54.8v226.3c252.8,0,457.7-85.4,457.7-190.7h-4.3
	C820.9,809.1,705.3,719.7,672.1,591.7z"/>
<path class="st0" d="M187.1,211.8l-17.4,56.1c-0.9,2.8-3.9,4.4-6.7,3.5c-1.1-0.4-2.1-1.1-2.8-2l-33.9-48c-1-1.4-2.7-2.3-4.5-2.3
	l-58.8,0.8c-3,0-5.4-2.3-5.4-5.3c0-1.2,0.4-2.3,1.1-3.3l35.2-47.1c1.1-1.4,1.4-3.3,0.8-4.9l-18.9-55.7c-1-2.8,0.5-5.9,3.4-6.8
	c1.1-0.4,2.3-0.4,3.5,0l55.7,18.9c1.7,0.6,3.5,0.3,4.9-0.8l47.1-35.2c2.4-1.8,5.8-1.3,7.5,1.1c0.7,0.9,1.1,2.1,1.1,3.3l-0.7,58.8
	c0,1.8,0.8,3.4,2.3,4.5l48,33.9c2.4,1.7,3,5.1,1.3,7.5c-0.7,1-1.7,1.7-2.8,2l-56.2,17.4C188.9,208.7,187.6,210.1,187.1,211.8z"/>
</svg>
