<svg xmlns="http://www.w3.org/2000/svg" viewBox="0 0 1000 1000"><path d="M953.39,809.31A290.47,290.47,0,0,1,672.26,591.88L531.24,49c-.32-.7-.74-1.31-1.11-2l-9.44-20.65c-10.93-23.9-42.93-33.62-67.84-20.6l-208.55,109c-6.16,3.22-3,11.68,4,11l182.33-18.23c5.24-.52,9.2,4.18,7.19,8.55L324.75,586.73a289.86,289.86,0,0,1-31.69,78.77c5.33,2.69,10.7,5.34,16.15,7.89,122.23,57.34,252.9,70.36,371.23,45.53-112.77,66.89-262.61,76.41-398.52,12.65-9.46-4.43-18.67-9.18-27.66-14.16a290.23,290.23,0,0,1-211.93,91.9h0C42.33,914.62,247.24,1000,500,1000s457.67-85.38,457.67-190.69Z" style="fill:#fff"/><path d="M672.07,591.71l-141-542.85c-.32-.7-.74-1.31-1.11-2L520.5,26.24A44.13,44.13,0,0,0,499.81,5.32V727.19a572.91,572.91,0,0,0,180.44-8.45c-53.6,31.8-115.57,50.6-180.44,54.76V999.83c252.76,0,457.67-85.38,457.67-190.7H953.2A290.46,290.46,0,0,1,672.07,591.71Z" style="fill:#fff"/><path d="M187.08,211.75l-17.45,56.12a5.38,5.38,0,0,1-9.53,1.51l-33.94-48a5.39,5.39,0,0,0-4.46-2.27l-58.77.75a5.38,5.38,0,0,1-4.38-8.6l35.15-47.1a5.38,5.38,0,0,0,.78-4.95L75.61,103.56a5.38,5.38,0,0,1,6.82-6.83l55.66,18.88a5.38,5.38,0,0,0,4.95-.79l47.1-35.15a5.38,5.38,0,0,1,8.6,4.38L198,142.82a5.41,5.41,0,0,0,2.28,4.47l48,33.93a5.38,5.38,0,0,1-1.51,9.54L190.62,208.2A5.37,5.37,0,0,0,187.08,211.75Z" style="fill:#fff"/></svg>